<?xml version="1.0" encoding="UTF-8"?>
<svg id="Layer_1" data-name="Layer 1" xmlns="http://www.w3.org/2000/svg" viewBox="0 0 1000 400">
  <defs>
    <style>
      .cls-1 {
        fill: #fff;
        stroke-width: 0px;
      }
    </style>
  </defs>
  <g>
    <path class="cls-1" d="M105.11,387.81c-.82,1.99-2.41,3.18-4.38,3.18h-38.98c-1.59,0-2.77-1.59-1.97-3.18l21.48-63.23L.1,121.37c-.38-1.19.41-2.78,2-2.78h47.31c2,0,3.59,1.19,4.38,3.18l51.31,141.18,43.34-141.18c.38-1.99,1.97-3.18,3.97-3.18h42.55c1.59,0,2.79,1.59,2,3.18l-91.86,266.05Z"/>
    <path class="cls-1" d="M236.38,99.8c-14.27,0-25.95-11.68-25.95-25.95h0c0-14.27,11.68-25.95,25.95-25.95h1.32c14.27,0,25.95,11.68,25.95,25.95h0c0,14.27-11.68,25.95-25.95,25.95h-1.32ZM215.96,323.39c-1.59,0-3.18-1.59-3.18-3.18l.79-100.61-.79-97.83c0-1.59,1.59-3.18,3.18-3.18h42.55c1.59,0,3.18,1.59,3.18,3.18l-1.18,97.83,1.18,100.61c0,1.59-1.59,3.18-3.18,3.18h-42.55Z"/>
    <path class="cls-1" d="M389.3,284.81l-34.19-57.27-22.68,27.05.41,65.62c0,1.59-1.59,3.18-3.18,3.18h-41.37c-1.59,0-3.18-1.59-3.18-3.18l1.59-135.61-1.59-136.41c0-1.59,1.59-3.18,3.18-3.18h41.37c1.59,0,3.18,1.59,3.18,3.18l-1.2,135.61v16.7l68.79-79.53c1.2-1.59,3.2-2.38,5.18-2.38h46.93c1.2,0,2,1.59,1.2,2.38l-65.23,71.98,74.77,127.66c.79,1.19,0,2.78-1.59,2.78h-48.93c-1.97,0-3.97-1.19-4.77-2.78l-18.69-35.79Z"/>
    <path class="cls-1" d="M637.8,253.39c1.59,0,3.18,1.6,2.79,3.19-5.56,39.37-39.37,71.57-94.25,71.57-66.03,0-101.42-44.14-101.42-106.57s37.78-107.77,99.83-107.77,99.42,42.94,100.6,112.93c0,1.6-1.59,3.19-3.18,3.19h-149.53c2,43.74,19.89,64.42,54.49,64.42,25.04,0,41.34-12.33,46.93-37.78.38-1.99,2.38-3.19,3.97-3.19h39.75ZM545.14,147.21c-28.63,0-45.73,17.51-50.9,50.51h99.42c-2-26.64-17.1-50.51-48.52-50.51Z"/>
    <path class="cls-1" d="M746.65,328.16c-57.64,0-93.84-24.26-95.42-71.18,0-1.59,1.59-3.18,3.18-3.18h40.16c1.59,0,3.18,1.59,3.18,3.18,1.2,27.04,18.69,39.37,50.9,39.37,27.04,0,43.34-10.74,43.34-29.82,0-45.34-136-5.18-136-89.49,0-41.36,33.01-63.22,85.1-63.22s86.3,21.07,89.48,64.03c0,1.59-1.59,3.18-3.18,3.18h-38.16c-1.59,0-3.2-1.19-3.59-3.18-3.18-21.08-18.3-33.01-45.34-33.01-23.45,0-38.57,8.75-38.57,28.63,0,44.15,136.02,2.38,136.02,89.08,0,41.75-38.98,65.62-91.09,65.62Z"/>
    <path class="cls-1" d="M848.38,301.91c0-13.92,11.53-25.85,26.25-25.85s26.25,12.33,26.25,25.85-11.53,26.25-26.25,26.25-26.25-11.93-26.25-26.25ZM884.96,245.05l8.36-153.11c.41-12.33,5.18-25.85,30.63-22.67h.79c25.07,3.18,23.86,16.3,18.69,29.03l-55.67,146.75c-.38,1.99-3.18,1.99-2.79,0Z"/>
  </g>
  <g>
    <path class="cls-1" d="M940.98,323.37c-.25,0-.44-.2-.44-.44l.3-16.83-.2-11.7h-9.57c-.25,0-.44-.2-.44-.44v-4.69c0-.25.2-.44.44-.44h26.75c.25,0,.44.2.44.44v4.69c0,.25-.2.44-.44.44h-9.52l-.2,11.7.3,16.83c0,.25-.2.44-.44.44h-6.96Z"/>
    <path class="cls-1" d="M969.15,308.76v14.16c0,.25-.2.44-.44.44h-5.92c-.25,0-.44-.2-.44-.44l.2-16.83-.2-16.83c0-.25.2-.44.44-.44h9.13c.25,0,.49.2.59.4l9.23,24.87,8.69-24.87c.1-.2.35-.4.59-.4h8.54c.25,0,.44.2.44.44l-.2,16.83.2,16.83c0,.25-.2.44-.44.44h-6.66c-.25,0-.44-.2-.44-.44v-14.16l.25-8.14.05-1.58-8.44,23.94c-.1.2-.35.4-.59.4h-5.03c-.25,0-.49-.2-.59-.4l-9.23-24.87.05,2.62.25,8.04Z"/>
  </g>
</svg>